<?xml version="1.0"?>
<svg xmlns="http://www.w3.org/2000/svg" xmlns:xlink="http://www.w3.org/1999/xlink" version="1.1" id="Capa_1" x="0px" y="0px" viewBox="0 0 493.778 493.778" style="enable-background:new 0 0 493.778 493.778;" xml:space="preserve" width="512px" height="512px" class=""><g><path id="XMLID_153_" d="M476.919,334.732l-47.932-169.031l23.906,3.972c0.966,0.162,1.922,0.236,2.862,0.236  c8.333,0,15.684-6.011,17.09-14.497c1.575-9.451-4.818-18.384-14.261-19.952l-194.35-32.281V25.345  c0-9.577-7.766-17.343-17.343-17.343c-9.579,0-17.343,7.766-17.343,17.343v72.076L40.894,66.087  c-9.544-1.576-18.393,4.819-19.951,14.261c-1.576,9.451,4.819,18.384,14.261,19.952l27.166,4.513L16.861,265.359  C7.519,265.629,0,273.2,0,282.608c0,9.577,7.766,17.344,17.343,17.344h112.224c9.579,0,17.344-7.767,17.344-17.344  c0-9.409-7.52-16.979-16.86-17.25L85.617,108.675l143.93,23.906v286.023l-36.329,36.338c-5.167,5.167-6.717,12.931-3.913,19.681  c2.794,6.748,9.374,11.154,16.683,11.154h81.796c7.308,0,13.897-4.406,16.691-11.154c2.793-6.75,1.254-14.515-3.913-19.681  l-36.329-36.338V138.339l148.266,24.626l-48.771,171.767c-9.341,0.271-16.86,7.841-16.86,17.25c0,9.577,7.766,17.344,17.343,17.344  h112.224c9.579,0,17.343-7.767,17.343-17.344C493.778,342.574,486.259,335.003,476.919,334.732z M111.995,265.265H34.907  l38.54-135.936L111.995,265.265z M381.775,334.639l38.54-135.936l38.547,135.936H381.775z" data-original="#000000" class="active-path" data-old_color="#000000" fill="#FFFFFF"/></g> </svg>
