<?xml version="1.0"?>
<svg xmlns="http://www.w3.org/2000/svg" height="512px" viewBox="0 0 512 512" width="512px" class=""><g><path d="m512 144h-144v-144h144zm-104-40h64v-64h-64zm104 408h-144v-144h144zm-104-40h64v-64h-64zm104-144h-144v-144h144zm-104-40h64v-64h-64zm-264-144h-144v-144h144zm-104-40h64v-64h-64zm104 408h-144v-144h144zm-104-40h64v-64h-64zm104-144h-144v-144h144zm-104-40h64v-64h-64zm288-144h-144v-144h144zm-104-40h64v-64h-64zm104 408h-144v-144h144zm-104-40h64v-64h-64zm104-144h-144v-144h144zm-104-40h64v-64h-64zm0 0" data-original="#000000" class="active-path" data-old_color="#000000" fill="#FFFFFF"/></g> </svg>
